Coordinates
version=1
nRows=32
nColumns=12
inDegrees=yes

Units are S.I. units (second, meters, Newtons, ...)
Angles are in degrees

endheader
time	SC_y	SC_z	SC_x	AC_y	AC_z	AC_x	GH_y	GH_z	GH_yy	EL_x	PS_y
       0.0              -29.92          7.631          4.352          52.59         -16.33          7.049          101.4          6.965          17.42          82.92          140.0
   0.01521              -29.92          7.634          4.357          52.59         -16.33          7.045          101.3          6.962          17.44          82.93          140.0
   0.03042              -29.92          7.638          4.362          52.59         -16.33          7.041          101.3           6.96          17.46          82.94          140.0
   0.04563              -29.92          7.641          4.367          52.59         -16.33          7.037          101.3          6.957          17.47          82.94          140.0
   0.06083              -29.92          7.645          4.372          52.58         -16.33          7.033          101.3          6.954          17.49          82.95          140.0
   0.07604              -29.92           7.65          4.378          52.58         -16.33          7.028          101.3           6.95          17.51          82.96          140.0
   0.09125              -29.91          7.654          4.384          52.58         -16.33          7.023          101.3          6.947          17.54          82.97          140.0
    0.1065              -29.91          7.659          4.391          52.57         -16.33          7.017          101.2          6.943          17.56          82.99          140.0
    0.1217              -29.91          7.664          4.398          52.57         -16.33          7.011          101.2          6.939          17.58           83.0          140.0
    0.1369              -29.91           7.67          4.406          52.57         -16.33          7.005          101.2          6.934          17.61          83.01          140.0
    0.1521              -29.91          7.676          4.414          52.56         -16.33          6.998          101.2           6.93          17.64          83.02          140.0
    0.1673              -29.91          7.682          4.423          52.56         -16.33          6.991          101.1          6.924          17.67          83.04          140.0
    0.1825               -29.9          7.689          4.433          52.55         -16.33          6.983          101.1          6.919           17.7          83.06          140.0
    0.1977               -29.9          7.696          4.443          52.55         -16.33          6.974          101.1          6.913          17.74          83.07          140.0
    0.2129               -29.9          7.704          4.454          52.54         -16.33          6.965          101.0          6.907          17.78          83.09          140.0
    0.2281               -29.9          7.713          4.466          52.54         -16.33          6.955          101.0            6.9          17.82          83.11          139.9
    0.2433              -29.89          7.722          4.479          52.53         -16.33          6.944          101.0          6.892          17.87          83.13          139.9
    0.2585              -29.89          7.733          4.494          52.53         -16.33          6.933          100.9          6.884          17.92          83.16          139.9
    0.2738              -29.89          7.744          4.509          52.52         -16.32           6.92          100.9          6.875          17.97          83.19          139.9
     0.289              -29.88          7.756          4.526          52.51         -16.32          6.906          100.8          6.865          18.03          83.21          139.9
    0.3042              -29.88           7.77          4.545           52.5         -16.32           6.89          100.8          6.854           18.1          83.25          139.9
    0.3194              -29.87          7.785          4.566          52.49         -16.32          6.873          100.7          6.842          18.17          83.28          139.9
    0.3346              -29.87          7.801          4.589          52.48         -16.32          6.854          100.6          6.829          18.25          83.32          139.9
    0.3498              -29.86           7.82          4.614          52.47         -16.32          6.833          100.6          6.815          18.34          83.36          139.9
     0.365              -29.85           7.84          4.642          52.45         -16.32           6.81          100.5          6.799          18.44          83.41          139.9
    0.3802              -29.85          7.863          4.673          52.44         -16.32          6.784          100.4           6.78          18.55          83.46          139.9
    0.3954              -29.84          7.888          4.709          52.42         -16.31          6.755          100.3           6.76          18.67          83.52          139.9
    0.4106              -29.83          7.917          4.748           52.4         -16.31          6.722          100.2          6.737          18.81          83.59          139.9
    0.4258              -29.82          7.949          4.793          52.38         -16.31          6.685          100.0          6.712          18.97          83.67          139.9
     0.441              -29.81          7.986          4.844          52.36         -16.31          6.643          99.87          6.683          19.14          83.75          139.9
    0.4563              -29.79          8.027          4.902          52.33          -16.3          6.596           99.7          6.649          19.35          83.85          139.8
    0.4715              -29.78          8.075          4.968           52.3          -16.3          6.541           99.5          6.611          19.58          83.97          139.8
